<svg width="24" height="32" viewBox="0 0 24 32" fill="none" xmlns="http://www.w3.org/2000/svg">
<path d="M16 27C16 27.2652 16.1054 27.5196 16.2929 27.7071C16.4804 27.8946 16.7348 28 17 28H19C19.2652 28 19.5196 27.8946 19.7071 27.7071C19.8946 27.5196 20 27.2652 20 27V15C20 14.7348 19.8946 14.4804 19.7071 14.2929C19.5196 14.1054 19.2652 14 19 14H17C16.7348 14 16.4804 14.1054 16.2929 14.2929C16.1054 14.4804 16 14.7348 16 15V27ZM11 28C10.7348 28 10.4804 27.8946 10.2929 27.7071C10.1054 27.5196 10 27.2652 10 27V19C10 18.7348 10.1054 18.4804 10.2929 18.2929C10.4804 18.1054 10.7348 18 11 18H13C13.2652 18 13.5196 18.1054 13.7071 18.2929C13.8946 18.4804 14 18.7348 14 19V27C14 27.2652 13.8946 27.5196 13.7071 27.7071C13.5196 27.8946 13.2652 28 13 28H11ZM5 28C4.73478 28 4.48043 27.8946 4.29289 27.7071C4.10536 27.5196 4 27.2652 4 27V23C4 22.7348 4.10536 22.4804 4.29289 22.2929C4.48043 22.1054 4.73478 22 5 22H7C7.26522 22 7.51957 22.1054 7.70711 22.2929C7.89464 22.4804 8 22.7348 8 23V27C8 27.2652 7.89464 27.5196 7.70711 27.7071C7.51957 27.8946 7.26522 28 7 28H5Z" fill="#FAFAFA"/>
<path d="M24 28V9L15 0H4C2.93913 0 1.92172 0.421427 1.17157 1.17157C0.421427 1.92172 0 2.93913 0 4V28C0 29.0609 0.421427 30.0783 1.17157 30.8284C1.92172 31.5786 2.93913 32 4 32H20C21.0609 32 22.0783 31.5786 22.8284 30.8284C23.5786 30.0783 24 29.0609 24 28ZM15 6C15 6.79565 15.3161 7.55871 15.8787 8.12132C16.4413 8.68393 17.2044 9 18 9H22V28C22 28.5304 21.7893 29.0391 21.4142 29.4142C21.0391 29.7893 20.5304 30 20 30H4C3.46957 30 2.96086 29.7893 2.58579 29.4142C2.21071 29.0391 2 28.5304 2 28V4C2 3.46957 2.21071 2.96086 2.58579 2.58579C2.96086 2.21071 3.46957 2 4 2H15V6Z" fill="#FAFAFA"/>
</svg>
