<svg width="28" height="27" viewBox="0 0 28 27" fill="none" xmlns="http://www.w3.org/2000/svg">
<path opacity="0.8" fill-rule="evenodd" clip-rule="evenodd" d="M15.3999 22.4401L7.9839 25.8001L8.8367 17.5921L3.3999 11.4641L11.3439 9.7521L15.3999 2.6001L19.4559 9.7505L27.3999 11.4625L21.9631 17.5921L22.8159 25.8001L15.3999 22.4401Z" fill="#FAFAFA" stroke="#FAFAFA" stroke-linecap="round" stroke-linejoin="round"/>
<path fill-rule="evenodd" clip-rule="evenodd" d="M5.91357 24.928L13 21.7168L20.0864 24.928C20.2146 24.9862 20.356 25.0095 20.4961 24.9956C20.6363 24.9817 20.7703 24.931 20.8846 24.8487C20.9989 24.7664 21.0894 24.6554 21.147 24.5268C21.2047 24.3983 21.2273 24.2569 21.2128 24.1168L20.3968 16.2608L25.5984 10.392C25.6909 10.2874 25.7544 10.1604 25.7826 10.0237C25.8108 9.88698 25.8028 9.74525 25.7593 9.61259C25.7158 9.47994 25.6383 9.36098 25.5346 9.26754C25.4308 9.1741 25.3044 9.10944 25.168 9.07998L17.576 7.44318L13.696 0.604777C13.6262 0.481659 13.525 0.379252 13.4027 0.308005C13.2805 0.236757 13.1415 0.199219 13 0.199219C12.8585 0.199219 12.7195 0.236757 12.5972 0.308005C12.4749 0.379252 12.3737 0.481659 12.304 0.604777L8.42397 7.44318L0.831974 9.07998C0.695374 9.10922 0.568814 9.17373 0.464886 9.26708C0.360958 9.36042 0.283285 9.47936 0.239595 9.61205C0.195905 9.74473 0.187722 9.88655 0.215859 10.0234C0.243996 10.1602 0.307473 10.2873 0.399974 10.392L5.60477 16.2592L4.78877 24.1168C4.77436 24.2567 4.79708 24.3979 4.85463 24.5262C4.91219 24.6545 5.00255 24.7654 5.11661 24.8476C5.23067 24.9299 5.36439 24.9806 5.50431 24.9947C5.64423 25.0088 5.78539 24.9858 5.91357 24.928ZM12.6704 20.112L6.52317 22.896L7.23197 16.0752C7.24362 15.9647 7.23214 15.853 7.19825 15.7473C7.16437 15.6415 7.10883 15.5439 7.03517 15.4608L2.50717 10.3552L9.11197 8.93118C9.22231 8.90753 9.3264 8.8608 9.4174 8.79407C9.5084 8.72733 9.58425 8.6421 9.63997 8.54398L13 2.62078L16.36 8.54398C16.4157 8.6421 16.4915 8.72733 16.5825 8.79407C16.6735 8.8608 16.7776 8.90753 16.888 8.93118L23.4928 10.3552L18.9648 15.4608C18.8911 15.5439 18.8356 15.6415 18.8017 15.7473C18.7678 15.853 18.7563 15.9647 18.768 16.0752L19.4768 22.896L13.3296 20.112C13.226 20.0651 13.1136 20.0409 13 20.0409C12.8863 20.0409 12.7739 20.0651 12.6704 20.112Z" fill="#FAFAFA"/>
</svg>
