<svg width="36" height="31" viewBox="0 0 36 31" fill="none" xmlns="http://www.w3.org/2000/svg">
<path d="M18 0C13.6506 0 10.125 3.41545 10.125 7.62891C10.125 11.0353 15.2719 17.2437 17.2437 19.4973C17.6431 19.9538 18.3575 19.9538 18.7563 19.4973C20.7281 17.2437 25.875 11.0353 25.875 7.62891C25.875 3.41545 22.3494 0 18 0ZM18 10.1719C16.55 10.1719 15.375 9.03359 15.375 7.62891C15.375 6.22422 16.55 5.08594 18 5.08594C19.45 5.08594 20.625 6.22422 20.625 7.62891C20.625 9.03359 19.45 10.1719 18 10.1719ZM1.2575 13.0751C0.886361 13.2189 0.568207 13.4671 0.344068 13.7878C0.11993 14.1084 8.8888e-05 14.4867 0 14.8739L0 30.03C0 30.7154 0.714375 31.1841 1.37125 30.9298L10 27.125V13.0127C9.4475 12.0452 8.99562 11.1031 8.67188 10.2021L1.2575 13.0751ZM18 21.7769C17.1206 21.7769 16.2887 21.4027 15.7181 20.75C14.4894 19.3453 13.1825 17.7457 12 16.1049V27.1244L24 30.9994V16.1055C22.8175 17.7457 21.5113 19.3459 20.2819 20.7506C19.7113 21.4027 18.8794 21.7769 18 21.7769ZM34.6287 9.75773L26 13.5625V31L34.7425 27.6124C35.1137 27.4687 35.4319 27.2205 35.656 26.8998C35.8802 26.5792 36 26.2008 36 25.8136V10.6575C36 9.97207 35.2856 9.50344 34.6287 9.75773Z" fill="#FAFAFA"/>
</svg>
